<svg width="29" height="30" viewBox="0 0 29 30" fill="none" xmlns="http://www.w3.org/2000/svg">
<path d="M10.8358 6.96C10.8118 6.416 10.7158 3.44 10.6838 2.52L10.6758 1.84C10.8678 1.744 11.5318 1.472 11.6918 1.488C11.6998 1.504 11.7238 1.536 11.7238 1.536C11.8678 1.464 12.1318 1.28 12.6118 1.312C13.4758 1.36 14.0678 1.864 14.0678 2.584C14.0678 3.152 13.8358 3.768 13.2758 4.24C14.1478 4.368 14.4038 4.96 14.4038 5.632C14.4038 6.6 12.9878 7.504 12.0118 7.504H11.9398C11.9398 7.504 11.9318 7.56 11.9238 7.576C11.6038 7.616 11.1078 7.68 10.8358 7.424V6.96ZM11.8278 4.488C12.6518 4.104 12.9478 3.64 12.9478 2.688C12.9478 2.144 12.7078 1.704 12.2118 1.712C12.0678 1.712 11.8758 1.816 11.7718 1.896L11.8278 4.488ZM11.9398 7.144C12.1558 7.128 12.4038 7.072 12.6118 6.952C13.0918 6.648 13.3238 6.128 13.2998 5.488C13.2758 5.152 13.0438 4.68 12.7318 4.584C12.4838 4.736 12.1958 4.864 11.8678 4.936L11.9398 7.144Z" fill="#C30000"/>
<path d="M14.8358 6.96C14.8118 6.416 14.7158 3.44 14.6838 2.52L14.6758 1.84C14.8678 1.744 15.5318 1.472 15.6918 1.488C15.6998 1.504 15.7238 1.536 15.7238 1.536C15.8678 1.464 16.1318 1.28 16.6118 1.312C17.4758 1.36 18.0678 1.864 18.0678 2.584C18.0678 3.152 17.8358 3.768 17.2758 4.24C18.1478 4.368 18.4038 4.96 18.4038 5.632C18.4038 6.6 16.9878 7.504 16.0118 7.504H15.9398C15.9398 7.504 15.9318 7.56 15.9238 7.576C15.6038 7.616 15.1078 7.68 14.8358 7.424V6.96ZM15.8278 4.488C16.6518 4.104 16.9478 3.64 16.9478 2.688C16.9478 2.144 16.7078 1.704 16.2118 1.712C16.0678 1.712 15.8758 1.816 15.7718 1.896L15.8278 4.488ZM15.9398 7.144C16.1558 7.128 16.4038 7.072 16.6118 6.952C17.0918 6.648 17.3238 6.128 17.2998 5.488C17.2758 5.152 17.0438 4.68 16.7318 4.584C16.4838 4.736 16.1958 4.864 15.8678 4.936L15.9398 7.144Z" fill="black"/>
<path d="M18.8358 6.96C18.8118 6.416 18.7158 3.44 18.6838 2.52L18.6758 1.84C18.8678 1.744 19.5318 1.472 19.6918 1.488C19.6998 1.504 19.7238 1.536 19.7238 1.536C19.8678 1.464 20.1318 1.28 20.6118 1.312C21.4758 1.36 22.0678 1.864 22.0678 2.584C22.0678 3.152 21.8358 3.768 21.2758 4.24C22.1478 4.368 22.4038 4.96 22.4038 5.632C22.4038 6.6 20.9878 7.504 20.0118 7.504H19.9398C19.9398 7.504 19.9318 7.56 19.9238 7.576C19.6038 7.616 19.1078 7.68 18.8358 7.424V6.96ZM19.8278 4.488C20.6518 4.104 20.9478 3.64 20.9478 2.688C20.9478 2.144 20.7078 1.704 20.2118 1.712C20.0678 1.712 19.8758 1.816 19.7718 1.896L19.8278 4.488ZM19.9398 7.144C20.1558 7.128 20.4038 7.072 20.6118 6.952C21.0918 6.648 21.3238 6.128 21.2998 5.488C21.2758 5.152 21.0438 4.68 20.7318 4.584C20.4838 4.736 20.1958 4.864 19.8678 4.936L19.9398 7.144Z" fill="#0075C3"/>
</svg>
